<svg id="Capa_1" data-name="Capa 1" xmlns="http://www.w3.org/2000/svg" xmlns:xlink="http://www.w3.org/1999/xlink" viewBox="0 0 443.01 156.43"><defs><style>.cls-1{fill:#ef7101;}.cls-10,.cls-11,.cls-12,.cls-13,.cls-14,.cls-15,.cls-16,.cls-17,.cls-18,.cls-2,.cls-3,.cls-4,.cls-5,.cls-6,.cls-7,.cls-8,.cls-9{stroke:#fff;stroke-miterlimit:10;}.cls-2,.cls-3,.cls-4,.cls-5,.cls-6,.cls-7{stroke-width:0.5px;}.cls-2{fill:url(#Degradado_sin_nombre_26);}.cls-3{fill:url(#Degradado_sin_nombre_26-2);}.cls-4{fill:url(#Degradado_sin_nombre_26-3);}.cls-5{fill:url(#Degradado_sin_nombre_26-4);}.cls-6{fill:url(#Degradado_sin_nombre_26-5);}.cls-7{fill:url(#Degradado_sin_nombre_26-6);}.cls-10,.cls-11,.cls-12,.cls-13,.cls-14,.cls-15,.cls-16,.cls-17,.cls-18,.cls-8,.cls-9{stroke-width:0.25px;}.cls-8{fill:url(#Degradado_sin_nombre_31);}.cls-9{fill:url(#Degradado_sin_nombre_31-2);}.cls-10{fill:url(#Degradado_sin_nombre_31-3);}.cls-11{fill:url(#Degradado_sin_nombre_31-4);}.cls-12{fill:url(#Degradado_sin_nombre_31-5);}.cls-13{fill:url(#Degradado_sin_nombre_31-6);}.cls-14{fill:url(#Degradado_sin_nombre_31-7);}.cls-15{fill:url(#Degradado_sin_nombre_31-8);}.cls-16{fill:url(#Degradado_sin_nombre_31-9);}.cls-17{fill:url(#Degradado_sin_nombre_31-10);}.cls-18{fill:url(#Degradado_sin_nombre_31-11);}</style><linearGradient id="Degradado_sin_nombre_26" x1="247.07" y1="277.63" x2="247.07" y2="370.33" gradientTransform="matrix(1, 0, 0, -1, 0, 598)" gradientUnits="userSpaceOnUse"><stop offset="0.28" stop-color="#fff"/><stop offset="0.39" stop-color="#fcfcfc"/><stop offset="0.48" stop-color="#f1f1f1"/><stop offset="0.57" stop-color="#e0e0e0"/><stop offset="0.67" stop-color="#c7c7c7"/><stop offset="0.78" stop-color="#a7a7a7"/><stop offset="0.89" stop-color="gray"/><stop offset="1" stop-color="#525252"/></linearGradient><linearGradient id="Degradado_sin_nombre_26-2" x1="303.75" y1="277.63" x2="303.75" y2="370.33" xlink:href="#Degradado_sin_nombre_26"/><linearGradient id="Degradado_sin_nombre_26-3" x1="358.65" y1="277.63" x2="358.65" y2="370.33" xlink:href="#Degradado_sin_nombre_26"/><linearGradient id="Degradado_sin_nombre_26-4" x1="427.26" y1="277.63" x2="427.26" y2="370.33" xlink:href="#Degradado_sin_nombre_26"/><linearGradient id="Degradado_sin_nombre_26-5" x1="502.92" y1="277.63" x2="502.92" y2="370.33" xlink:href="#Degradado_sin_nombre_26"/><linearGradient id="Degradado_sin_nombre_26-6" x1="591.35" y1="277.64" x2="591.35" y2="371.06" xlink:href="#Degradado_sin_nombre_26"/><linearGradient id="Degradado_sin_nombre_31" x1="256.95" y1="246.67" x2="256.95" y2="215.62" gradientTransform="matrix(1, 0, 0, -1, 0, 598)" gradientUnits="userSpaceOnUse"><stop offset="0.28" stop-color="#fff"/><stop offset="0.39" stop-color="#fcfcfc"/><stop offset="0.48" stop-color="#f1f1f1"/><stop offset="0.57" stop-color="#e0e0e0"/><stop offset="0.67" stop-color="#c7c7c7"/><stop offset="0.79" stop-color="#acacac"/><stop offset="0.9" stop-color="#a7a7a7"/><stop offset="1" stop-color="gray"/></linearGradient><linearGradient id="Degradado_sin_nombre_31-2" x1="291.03" y1="246.67" x2="291.03" y2="215.07" xlink:href="#Degradado_sin_nombre_31"/><linearGradient id="Degradado_sin_nombre_31-3" x1="322.27" y1="246.64" x2="322.27" y2="215.59" xlink:href="#Degradado_sin_nombre_31"/><linearGradient id="Degradado_sin_nombre_31-4" x1="354.29" y1="247.08" x2="354.29" y2="215.19" xlink:href="#Degradado_sin_nombre_31"/><linearGradient id="Degradado_sin_nombre_31-5" x1="395.51" y1="246.67" x2="395.51" y2="215.62" xlink:href="#Degradado_sin_nombre_31"/><linearGradient id="Degradado_sin_nombre_31-6" x1="437.2" y1="247.08" x2="437.2" y2="215.19" xlink:href="#Degradado_sin_nombre_31"/><linearGradient id="Degradado_sin_nombre_31-7" x1="469.19" y1="246.64" x2="469.19" y2="215.59" xlink:href="#Degradado_sin_nombre_31"/><linearGradient id="Degradado_sin_nombre_31-8" x1="501.2" y1="247.08" x2="501.2" y2="215.19" xlink:href="#Degradado_sin_nombre_31"/><linearGradient id="Degradado_sin_nombre_31-9" x1="536.33" y1="246.67" x2="536.33" y2="215.62" xlink:href="#Degradado_sin_nombre_31"/><linearGradient id="Degradado_sin_nombre_31-10" x1="561.33" y1="246.67" x2="561.33" y2="215.62" xlink:href="#Degradado_sin_nombre_31"/><linearGradient id="Degradado_sin_nombre_31-11" x1="585.8" y1="247.06" x2="585.8" y2="215.19" xlink:href="#Degradado_sin_nombre_31"/></defs><rect class="cls-1" y="107.76" width="443.01" height="6"/><path class="cls-2" d="M238.09,320.37,204,227.67h14.62l16.18,45.7c4.47,12.5,8.33,23.8,11.13,34.59h.37a357.91,357.91,0,0,1,11.86-34.44l17.61-45.85h14.38l-37.21,92.7Z" transform="translate(-193.13 -226.69)"/><path class="cls-3" d="M310.5,227.67v92.7H297v-92.7Z" transform="translate(-193.13 -226.69)"/><path class="cls-4" d="M329.63,227.67h13.52v82.6h44.53v10.1H329.63Z" transform="translate(-193.13 -226.69)"/><path class="cls-5" d="M398.23,227.67h13.52v82.6h44.53v10.1h-58Z" transform="translate(-193.13 -226.69)"/><path class="cls-6" d="M484.05,291.24l-10.77,29.13H459.34l35.42-92.7h16.17l35.57,92.7H532.12L521,291.24Zm34.2-9.36L507.94,255.2c-2.26-6.07-3.83-11.59-5.37-16.92h-.36c-1.49,5.42-3.12,11.09-5.17,16.76l-10.26,26.84Z" transform="translate(-193.13 -226.69)"/><path class="cls-7" d="M557.42,228.94a159,159,0,0,1,25.87-2c14.28,0,23.69,2.41,30.18,7.63a22,22,0,0,1,8.17,17.62c0,12.18-8.74,20.27-19.63,23.62v.34c7.94,2.48,12.74,9.16,15.27,18.77,3.43,12.95,5.89,21.82,8,25.44H611.34c-1.64-2.68-4-10.59-6.84-22.19-3.09-12.7-8.73-17.62-20.91-18H570.86v40.17H557.42Zm13.44,42.2h13.75c14.39,0,23.51-7,23.51-17.6,0-12-9.76-17.27-23.94-17.3a65.38,65.38,0,0,0-13.32,1.06Z" transform="translate(-193.13 -226.69)"/><path class="cls-8" d="M273.37,382.38H267.6l-4-8.9H250l-3.7,8.9h-5.77l13.74-31.05h5.19Zm-15.84-23.59c-.09-.22-.2-.54-.34-1a10.38,10.38,0,0,1-.34-1.33h-.11a12.63,12.63,0,0,1-.34,1.38,10.62,10.62,0,0,1-.4,1.07l-4.3,10.41H262Z" transform="translate(-193.13 -226.69)"/><path class="cls-9" d="M291.25,379a11.56,11.56,0,0,0,3.64-.54,7.66,7.66,0,0,0,2.81-1.61,7.21,7.21,0,0,0,1.8-2.69,9.89,9.89,0,0,0,.65-3.77v-19h5.33v18.43a15.3,15.3,0,0,1-1,5.76,10.56,10.56,0,0,1-2.93,4.11,12.66,12.66,0,0,1-4.65,2.47,21,21,0,0,1-6.16.83,20.37,20.37,0,0,1-5.86-.8,12.23,12.23,0,0,1-4.46-2.4,10.64,10.64,0,0,1-2.85-4,14.1,14.1,0,0,1-1-5.52V351.33H282v18.72a10.44,10.44,0,0,0,.66,3.87,7.35,7.35,0,0,0,1.87,2.79,8.18,8.18,0,0,0,2.93,1.68A12.47,12.47,0,0,0,291.25,379Z" transform="translate(-193.13 -226.69)"/><path class="cls-10" d="M333.9,355.36H325v27h-5.36v-27h-9v-4H333.9Z" transform="translate(-193.13 -226.69)"/><path class="cls-11" d="M371,366.45a18.79,18.79,0,0,1-1.16,6.8,14.1,14.1,0,0,1-3.34,5.16,14.57,14.57,0,0,1-5.29,3.26,20.45,20.45,0,0,1-7.06,1.14,19.9,19.9,0,0,1-6.84-1.11,14.89,14.89,0,0,1-5.22-3.17,14.09,14.09,0,0,1-3.34-4.93,16.76,16.76,0,0,1-1.18-6.41,18.44,18.44,0,0,1,1.17-6.7,14,14,0,0,1,3.37-5.14,15.16,15.16,0,0,1,5.41-3.27,20.91,20.91,0,0,1,7.23-1.16,18.93,18.93,0,0,1,6.71,1.13,14.69,14.69,0,0,1,5.13,3.18,14.14,14.14,0,0,1,3.27,4.91A16.79,16.79,0,0,1,371,366.45Zm-5.52.5a17,17,0,0,0-.71-5.07,10.31,10.31,0,0,0-2.11-3.8,9.21,9.21,0,0,0-3.45-2.39,12.52,12.52,0,0,0-4.73-.83,12,12,0,0,0-4.66.88,10,10,0,0,0-3.57,2.46A10.8,10.8,0,0,0,344,362a14.08,14.08,0,0,0-.81,4.9,14.86,14.86,0,0,0,.77,4.9,10.84,10.84,0,0,0,2.2,3.77A9.93,9.93,0,0,0,349.6,378a11.44,11.44,0,0,0,4.55.86,13.25,13.25,0,0,0,4.79-.8,9.62,9.62,0,0,0,3.56-2.33,10.14,10.14,0,0,0,2.21-3.74,15.59,15.59,0,0,0,.75-5Z" transform="translate(-193.13 -226.69)"/><path class="cls-12" d="M414.64,382.38h-5l-1.12-20.3V358.2c-.11.36-.23.75-.37,1.16s-.27.79-.4,1.15l-.34,1c-.1.28-.18.48-.23.61l-8.92,20.3h-4.82l-9.08-20.3-.29-.66c-.11-.28-.24-.6-.37-1s-.26-.73-.39-1.13-.25-.77-.34-1.13v2.06a8,8,0,0,1-.05,1.11c-.05.36,0,.68-.06.95l-1.48,20.06h-5l2.46-31.05h5.77l10.2,22.89c.1.23.2.49.31.78s.21.61.3.93.17.64.26,1,.15.6.2.86c.06-.26.13-.55.22-.89s.19-.67.29-1l.31-1a6.68,6.68,0,0,1,.3-.76l10-22.81h6Z" transform="translate(-193.13 -226.69)"/><path class="cls-13" d="M453.92,366.45a18.76,18.76,0,0,1-1.17,6.8,14.07,14.07,0,0,1-3.33,5.16,14.61,14.61,0,0,1-5.3,3.26,20.45,20.45,0,0,1-7.06,1.14,19.9,19.9,0,0,1-6.84-1.11,14.89,14.89,0,0,1-5.22-3.17,14.09,14.09,0,0,1-3.34-4.93,16.76,16.76,0,0,1-1.18-6.41,18.44,18.44,0,0,1,1.17-6.7,13.91,13.91,0,0,1,3.38-5.14,15,15,0,0,1,5.4-3.27,21,21,0,0,1,7.24-1.16,18.91,18.91,0,0,1,6.7,1.13,14.69,14.69,0,0,1,5.13,3.18,14.14,14.14,0,0,1,3.27,4.91A17,17,0,0,1,453.92,366.45Zm-5.53.5a17,17,0,0,0-.71-5.07,10.31,10.31,0,0,0-2.11-3.8,9.21,9.21,0,0,0-3.45-2.39,12.52,12.52,0,0,0-4.73-.83,12,12,0,0,0-4.66.88,10,10,0,0,0-3.57,2.46,10.8,10.8,0,0,0-2.29,3.8,14.31,14.31,0,0,0-.8,4.9,14.85,14.85,0,0,0,.76,4.9,10.84,10.84,0,0,0,2.2,3.77,9.93,9.93,0,0,0,3.48,2.42,11.61,11.61,0,0,0,4.55.86,13.25,13.25,0,0,0,4.79-.8,9.62,9.62,0,0,0,3.56-2.33,10.14,10.14,0,0,0,2.21-3.74,15.33,15.33,0,0,0,.77-5Z" transform="translate(-193.13 -226.69)"/><path class="cls-14" d="M480.83,355.36h-8.92v27h-5.36v-27h-9v-4h23.26Z" transform="translate(-193.13 -226.69)"/><path class="cls-15" d="M517.92,366.45a18.76,18.76,0,0,1-1.17,6.8,14.1,14.1,0,0,1-3.34,5.16,14.57,14.57,0,0,1-5.29,3.26,20.45,20.45,0,0,1-7.06,1.14,19.9,19.9,0,0,1-6.84-1.11,14.89,14.89,0,0,1-5.22-3.17,14.09,14.09,0,0,1-3.34-4.93,16.76,16.76,0,0,1-1.18-6.41,18.44,18.44,0,0,1,1.17-6.7,13.91,13.91,0,0,1,3.38-5.14,15,15,0,0,1,5.4-3.27,20.91,20.91,0,0,1,7.23-1.16,18.93,18.93,0,0,1,6.71,1.13,14.69,14.69,0,0,1,5.13,3.18,14.14,14.14,0,0,1,3.27,4.91A17,17,0,0,1,517.92,366.45Zm-5.53.5a17,17,0,0,0-.71-5.07,10.31,10.31,0,0,0-2.11-3.8,9.21,9.21,0,0,0-3.45-2.39,12.52,12.52,0,0,0-4.73-.83,12,12,0,0,0-4.66.88,10,10,0,0,0-3.57,2.46,10.8,10.8,0,0,0-2.29,3.8,14.08,14.08,0,0,0-.81,4.9,14.86,14.86,0,0,0,.77,4.9,10.46,10.46,0,0,0,2.2,3.77,9.93,9.93,0,0,0,3.48,2.42,11.44,11.44,0,0,0,4.55.86,13.25,13.25,0,0,0,4.79-.8,9.62,9.62,0,0,0,3.56-2.33,10.14,10.14,0,0,0,2.21-3.74,15.33,15.33,0,0,0,.77-5Z" transform="translate(-193.13 -226.69)"/><path class="cls-16" d="M548.36,382.38H542l-9.85-13.7H529.7v13.7h-5.39V351.33h8a32,32,0,0,1,5.26.4,13.6,13.6,0,0,1,4.22,1.34,7.41,7.41,0,0,1,2.82,2.51,7.67,7.67,0,0,1,.33,7.05,8.77,8.77,0,0,1-1.83,2.48,10.29,10.29,0,0,1-2.62,1.76,12.75,12.75,0,0,1-3,1ZM540,359.63a3.46,3.46,0,0,0-1.82-3.25,11.79,11.79,0,0,0-5.59-1h-2.9v9.48h2.62a10,10,0,0,0,5.71-1.38A4.41,4.41,0,0,0,540,359.63Z" transform="translate(-193.13 -226.69)"/><path class="cls-17" d="M570.18,382.38h-17.7V351.33h17.64v4H557.81v9.43h12.37v4H557.81v9.62h12.37Z" transform="translate(-193.13 -226.69)"/><path class="cls-18" d="M596.62,373.7a8.55,8.55,0,0,1-.75,3.56,8.16,8.16,0,0,1-2.21,2.9A10.58,10.58,0,0,1,590,382.1a16,16,0,0,1-5,.71,25.75,25.75,0,0,1-2.78-.15,21.12,21.12,0,0,1-2.62-.46,22.93,22.93,0,0,1-2.32-.69,13,13,0,0,1-1.86-.86v-4.8a18.66,18.66,0,0,0,2.07,1.1,22.46,22.46,0,0,0,2.5,1,26.52,26.52,0,0,0,2.62.68,11.47,11.47,0,0,0,2.33.26,10,10,0,0,0,2.78-.34,6.06,6.06,0,0,0,2-1,4.06,4.06,0,0,0,1.2-1.55,4.74,4.74,0,0,0,.4-2,3.92,3.92,0,0,0-.51-2.06,4.53,4.53,0,0,0-1.43-1.46,11,11,0,0,0-2.25-1.13c-.87-.34-1.85-.69-2.92-1.06a36.88,36.88,0,0,1-3.94-1.55,12.12,12.12,0,0,1-2.9-1.77,6.72,6.72,0,0,1-1.8-2.3,7.23,7.23,0,0,1-.61-3.11,7.06,7.06,0,0,1,.9-3.56,8.33,8.33,0,0,1,2.46-2.72,11.81,11.81,0,0,1,3.66-1.72,15.72,15.72,0,0,1,4.47-.62,23.54,23.54,0,0,1,4.59.41,26.91,26.91,0,0,1,3.75,1v4.32A17.25,17.25,0,0,0,593,356q-1-.31-2.19-.57c-.77-.17-1.53-.3-2.3-.41a16.12,16.12,0,0,0-2.19-.15,9.68,9.68,0,0,0-2.57.32,6.14,6.14,0,0,0-1.9.9,3.8,3.8,0,0,0-1.57,3.14,3.22,3.22,0,0,0,.52,1.86,4.82,4.82,0,0,0,1.48,1.4,12.32,12.32,0,0,0,2.31,1.12c.9.35,1.91.71,3,1.1a37.16,37.16,0,0,1,3.82,1.54,11.86,11.86,0,0,1,2.84,1.85,7.08,7.08,0,0,1,2.42,5.56Z" transform="translate(-193.13 -226.69)"/></svg>